HIERARCHY
ROOT Hips
{
	OFFSET	0.00	0.00	0.00
	CHANNELS 6 Xposition Yposition Zposition Zrotation Xrotation Yrotation
	JOINT LeftUpLeg
	{
		OFFSET	 0.126116	-0.065224	 0.014019
		CHANNELS 3 Zrotation Xrotation Yrotation
		JOINT LeftLeg
		{
			OFFSET	 0.000000	 0.569914	 0.000000
			CHANNELS 3 Zrotation Xrotation Yrotation
			JOINT LeftFoot
			{
				OFFSET	 0.000000	 0.544423	 0.000000
				CHANNELS 3 Zrotation Xrotation Yrotation
				JOINT LeftToeBase
				{
					OFFSET	 0.000000	 0.207117	 0.000000
					CHANNELS 3 Zrotation Xrotation Yrotation
					End Site
					{
						OFFSET	 0.000000	 0.207117	 0.000000
					}
				}
			}
		}
	}
	JOINT RightUpLeg
	{
		OFFSET	-0.124023	-0.065224	 0.008373
		CHANNELS 3 Zrotation Xrotation Yrotation
		JOINT RightLeg
		{
			OFFSET	 0.000000	 0.570047	 0.000000
			CHANNELS 3 Zrotation Xrotation Yrotation
			JOINT RightFoot
			{
				OFFSET	 0.000000	 0.544354	 0.000000
				CHANNELS 3 Zrotation Xrotation Yrotation
				JOINT RightToeBase
				{
					OFFSET	 0.000000	 0.207540	 0.000000
					CHANNELS 3 Zrotation Xrotation Yrotation
					End Site
					{
						OFFSET	 0.000000	 0.207540	 0.000000
					}
				}
			}
		}
	}
	JOINT Spine
	{
		OFFSET	 0.000184	 0.117403	 0.007763
		CHANNELS 3 Zrotation Xrotation Yrotation
		JOINT Spine1
		{
			OFFSET	 0.000000	 0.137269	 0.000000
			CHANNELS 3 Zrotation Xrotation Yrotation
			JOINT Spine2
			{
				OFFSET	 0.000000	 0.156879	 0.000000
				CHANNELS 3 Zrotation Xrotation Yrotation
				JOINT LeftShoulder
				{
					OFFSET	 0.080501	 0.160143	 0.002496
					CHANNELS 3 Zrotation Xrotation Yrotation
					JOINT LeftArm
					{
						OFFSET	 0.000000	 0.164363	 0.000000
						CHANNELS 3 Zrotation Xrotation Yrotation
						JOINT LeftForeArm
						{
							OFFSET	 0.000000	 0.364576	 0.000000
							CHANNELS 3 Zrotation Xrotation Yrotation
							JOINT LeftHand
							{
								OFFSET	 0.000000	 0.360812	 0.000000
								CHANNELS 3 Zrotation Xrotation Yrotation
								JOINT LeftHandIndex1
								{
									OFFSET	 0.000000	 0.086006	 0.000000
									CHANNELS 3 Zrotation Xrotation Yrotation
									JOINT LeftHandIndex2
									{
										OFFSET	 0.000000	 0.047237	 0.000000
										CHANNELS 3 Zrotation Xrotation Yrotation
										JOINT LeftHandIndex3
										{
											OFFSET	-0.004284	 0.038165	 0.000551
											CHANNELS 3 Zrotation Xrotation Yrotation
											End Site
											{
												OFFSET	-0.004284	 0.038165	 0.000551
											}
										}
									}
								}
							}
						}
					}
				}
				JOINT Neck
				{
					OFFSET	 0.000000	 0.176489	 0.000000
					CHANNELS 3 Zrotation Xrotation Yrotation
					JOINT Head
					{
						OFFSET	 0.000000	 0.077941	 0.001747
						CHANNELS 3 Zrotation Xrotation Yrotation
						End Site
						{
							OFFSET	 0.000000	 0.077941	 0.001747
						}
					}
				}
				JOINT RightShoulder
				{
					OFFSET	-0.080363	 0.159706	-0.000306
					CHANNELS 3 Zrotation Xrotation Yrotation
					JOINT RightArm
					{
						OFFSET	 0.000000	 0.164196	 0.000000
						CHANNELS 3 Zrotation Xrotation Yrotation
						JOINT RightForeArm
						{
							OFFSET	 0.000000	 0.365611	 0.000000
							CHANNELS 3 Zrotation Xrotation Yrotation
							JOINT RightHand
							{
								OFFSET	 0.000000	 0.360648	 0.000000
								CHANNELS 3 Zrotation Xrotation Yrotation
								JOINT RightHandIndex1
								{
									OFFSET	 0.000000	 0.069977	 0.000000
									CHANNELS 3 Zrotation Xrotation Yrotation
									JOINT RightHandIndex2
									{
										OFFSET	 0.000000	 0.052305	 0.000000
										CHANNELS 3 Zrotation Xrotation Yrotation
										JOINT RightHandIndex3
										{
											OFFSET	 0.009002	 0.042196	 0.000782
											CHANNELS 3 Zrotation Xrotation Yrotation
											End Site
											{
												OFFSET	 0.009002	 0.042196	 0.000782
											}
										}
									}
								}
							}
						}
					}
				}
			}
		}
	}
}
MOTION
Frames:    7
Frame Time: 0.03333334
 0.027745	 1.195659	-0.309395	 1.994423	 0.409213	 172.202700	-164.011300	 17.522290	-16.625020	 11.250280	-36.271930	 5.785986	-30.595740	 76.912920	 19.973280	 1.161977	 26.688590	-2.659639	 178.851800	-12.819240	 7.469419	-1.301872	-16.696940	 8.280371	 64.863360	 86.971600	-58.857470	-1.288946	 28.371860	 2.710498	 2.205689	 6.336367	 1.449781	 0.544278	 3.928867	 0.881289	 1.405701	-3.348891	 0.541487	-113.175900	 6.486623	 92.937060	 21.660530	 50.407590	 3.550704	 9.045813	-0.466151	-0.046979	 16.283440	-1.526835	 11.216920	 0.576345	 8.605226	-0.355662	-5.949432	 13.588410	 1.519114	 4.986736	-3.496527	-0.334316	 3.185276	-6.826080	 0.874203	-1.253883	-5.447003	 3.491004	 123.446100	 10.375690	-96.382100	-8.359509	 44.243170	-1.511093	-5.112264	-0.201028	 0.049626	-2.420685	-7.265417	-22.459290	-2.313230	 4.862397	 0.896044	 12.533690	 22.837810	-5.144797	-8.500219	 13.052030	-0.522331
 0.028641	 1.195850	-0.307860	 1.975925	 0.373477	 172.033100	-163.964000	 17.479180	-16.823130	 11.231710	-36.189710	 5.721262	-30.663640	 76.793250	 20.047450	 1.161827	 26.686560	-2.659580	 178.839200	-12.422930	 7.377930	-1.345821	-17.241340	 8.198340	 66.926550	 87.098220	-60.912300	-1.288803	 28.369980	 2.710438	 2.250053	 6.322632	 1.433881	 0.482927	 3.912769	 0.909496	 1.440731	-3.371053	 0.576991	-113.110800	 6.495790	 92.943920	 21.406760	 50.493180	 3.820572	 9.380383	-0.483271	-0.044191	 16.222570	-1.802625	 11.265240	 0.626915	 8.448353	-0.355372	-5.948788	 13.623660	 1.522893	 4.989287	-3.440509	-0.332964	 3.183428	-6.827455	 0.884845	-1.255800	-5.478328	 3.572321	 123.402500	 10.382810	-96.377530	-8.359482	 44.265950	-1.459439	-5.112927	-0.200985	 0.049637	-2.630128	-7.545245	-22.352720	-2.331512	 4.919661	 0.895312	 12.544610	 22.988870	-5.181271	-8.501308	 13.175670	-0.530136
 0.029721	 1.196002	-0.306284	 1.954092	 0.330720	 171.832000	-163.906400	 17.437120	-17.035920	 11.202510	-36.119660	 5.621822	-30.795410	 76.671260	 20.183720	 1.161650	 26.684160	-2.659509	 178.827600	-11.996380	 7.270273	-1.392847	-17.822680	 8.102055	 69.372220	 87.240040	-63.351460	-1.288633	 28.367750	 2.710366	 2.302836	 6.306310	 1.411042	 0.418167	 3.894404	 0.938789	 1.478658	-3.397551	 0.619098	-113.033500	 6.506650	 92.952040	 21.177570	 50.598000	 4.085800	 9.683632	-0.498726	-0.041569	 16.197370	-2.136771	 11.316800	 0.686894	 8.262210	-0.354846	-5.948026	 13.665480	 1.527377	 4.992312	-3.374050	-0.331363	 3.181236	-6.829086	 0.897471	-1.258018	-5.515387	 3.668823	 123.350600	 10.391240	-96.372090	-8.361618	 44.291220	-1.396930	-5.114350	-0.201045	 0.049583	-2.877468	-7.878119	-22.234640	-2.353203	 4.987598	 0.894467	 12.557720	 23.168090	-5.224644	-8.502582	 13.322370	-0.539399
 0.031180	 1.196131	-0.304417	 1.925400	 0.273686	 171.562000	-163.827400	 17.388610	-17.322560	 11.172880	-36.048310	 5.494375	-31.019840	 76.527750	 20.411380	 1.161413	 26.680950	-2.659415	 178.816700	-11.472900	 7.126457	-1.450139	-18.529180	 7.974232	 72.715070	 87.417070	-66.690250	-1.288406	 28.364760	 2.710269	 2.373856	 6.284379	 1.373929	 0.344690	 3.872948	 0.971283	 1.523469	-3.434602	 0.675396	-112.930200	 6.521211	 92.962900	 20.940980	 50.743000	 4.388258	 9.997192	-0.514694	-0.038830	 16.209460	-2.593674	 11.374020	 0.767149	 8.013020	-0.353835	-5.947011	 13.721440	 1.533378	 4.996357	-3.285100	-0.329225	 3.178302	-6.831271	 0.914369	-1.260881	-5.565084	 3.798002	 123.281300	 10.402500	-96.364820	-8.369793	 44.321770	-1.308846	-5.116242	-0.201137	 0.049554	-3.207068	-8.324196	-22.092790	-2.382236	 5.078526	 0.893376	 12.575530	 23.408000	-5.282866	-8.504247	 13.518740	-0.551801
 0.032856	 1.196214	-0.302488	 1.893093	 0.208780	 171.253700	-163.735700	 17.340910	-17.650570	 11.147380	-35.986860	 5.353665	-31.315020	 76.380810	 20.708060	 1.161142	 26.677290	-2.659307	 178.809800	-10.918270	 6.963704	-1.510354	-19.269010	 7.829099	 76.733150	 87.604450	-70.709020	-1.288147	 28.361360	 2.710160	 2.455404	 6.259239	 1.322520	 0.278668	 3.853428	 0.999162	 1.566542	-3.479120	 0.739572	-112.812100	 6.537866	 92.975250	 20.729760	 50.914090	 4.689688	 10.280090	-0.529082	-0.036254	 16.259320	-3.126383	 11.423840	 0.858799	 7.728285	-0.352249	-5.945859	 13.785370	 1.540234	 5.000975	-3.183489	-0.326792	 3.174952	-6.833768	 0.933671	-1.263996	-5.622000	 3.945605	 123.202100	 10.415380	-96.356500	-8.387142	 44.351450	-1.203123	-5.118135	-0.201137	 0.049543	-3.581643	-8.834134	-21.949690	-2.415405	 5.182399	 0.892186	 12.596250	 23.682100	-5.349622	-8.506097	 13.743090	-0.565976
 0.034552	 1.196252	-0.300685	 1.860986	 0.142901	 170.941100	-163.641300	 17.298260	-17.983740	 11.127680	-35.939310	 5.215002	-31.639060	 76.244330	 21.032190	 1.160868	 26.673580	-2.659198	 178.808200	-10.390970	 6.799629	-1.567029	-19.962710	 7.683019	 81.080090	 87.778500	-75.061670	-1.287885	 28.357910	 2.710049	 2.538280	 6.233704	 1.261680	 0.230506	 3.838094	 1.018268	 1.601705	-3.526472	 0.804340	-112.692600	 6.554722	 92.987700	 20.557270	 51.092670	 4.963792	 10.513330	-0.540977	-0.034063	 16.333960	-3.674922	 11.458130	 0.951426	 7.440350	-0.350179	-5.944702	 13.850010	 1.547166	 5.005637	-3.080763	-0.324340	 3.171566	-6.836294	 0.953184	-1.267011	-5.679338	 4.094877	 123.122000	 10.428400	-96.348080	-8.413101	 44.376110	-1.090025	-5.119140	-0.201122	 0.049508	-3.959184	-9.349186	-21.826160	-2.448941	 5.287414	 0.891044	 12.617600	 23.959250	-5.417380	-8.507913	 13.969940	-0.580315
 0.036688	 1.196257	-0.298550	 1.821260	 0.059801	 170.546900	-163.520700	 17.250060	-18.404470	 11.108770	-35.893550	 5.043710	-32.068960	 76.083750	 21.461020	 1.160523	 26.668910	-2.659061	 178.813500	-9.762152	 6.594258	-1.633909	-20.777380	 7.499547	 87.065680	 87.976680	-81.060840	-1.287555	 28.353570	 2.709909	 2.643411	 6.201390	 1.171811	 0.195265	 3.825055	 1.028931	 1.634479	-3.588615	 0.885838	-112.542100	 6.576009	 93.003330	 20.376430	 51.324100	 5.283142	 10.761180	-0.553565	-0.031673	 16.447160	-4.379520	 11.477400	 1.068140	 7.077330	-0.346903	-5.943256	 13.931470	 1.555904	 5.011507	-2.951283	-0.321262	 3.167300	-6.839478	 0.977779	-1.270569	-5.751838	 4.283071	 123.021100	 10.444780	-96.337430	-8.457824	 44.399680	-0.939145	-5.120957	-0.201278	 0.049533	-4.432938	-9.996502	-21.699660	-2.491217	 5.419778	 0.889693	 12.645090	 24.308630	-5.503177	-8.510119	 14.255900	-0.598401
